<svg xmlns="http://www.w3.org/2000/svg" viewBox="0 0 200.1 238.6" class="a" id="svg_logo">
<style>
  .a{
    fill:none;
  }
  .b{
    fill:inherit;
  }
</style>
  <g>
    <path d="m0 0l200.1 0 0 238.6 -200.1 0z" class="a"/>
    <path d="m186.4 102.5l-66.3-27.1 66.3-27.1z" class="b"/>
    <path d="m185.8 47.8l0 0c13.9 16.3 14 39.8 0.2 55z" class="b"/>
    <path d="m146.4 79.7l0 0c-2.7 0-5-2.2-5-5l0 0c0-1.3 0.5-2.6 1.5-3.5 0.9-0.9 2.2-1.5 3.5-1.5l0 0c2.7 0 5 2.2 5 5l0 0c0 2.7-2.2 5-5 5z" class="toppings"/>
    <path d="m172.8 74l0 0c-2.7 0-5-2.2-5-5l0 0c0-1.3 0.5-2.6 1.5-3.5 0.9-0.9 2.2-1.5 3.5-1.5l0 0c2.7 0 5 2.2 5 5l0 0c0 2.7-2.2 5-5 5z" class="toppings"/>
    <path d="m173.3 90.6l0 0c-2.7 0-5-2.2-5-5l0 0c0-1.3 0.5-2.6 1.5-3.5 0.9-0.9 2.2-1.5 3.5-1.5l0 0c2.7 0 5 2.2 5 5l0 0c0 2.7-2.2 5-5 5z" class="toppings"/>
    <path d="m156.6 98.4l0 0c-11.1 27.2-39.9 42.8-68.7 37 -28.8-5.7-49.5-31.1-49.3-60.5 0.2-29.4 21.2-54.5 50.1-59.8 28.9-5.4 57.5 10.5 68.2 37.9l-57 22.3z" class="b"/>
    <path d="m167.9 106.7c-15.2 31.9-50.6 49.1-85.1 41.4 -34.5-7.7-58.7-38.3-58.1-73.4 0.6-35.1 25.8-65.3 60.5-72.4 34.8-7.1 69.6 10.7 83.7 42.8l-4.9 2.2 0 0c-13.1-29.8-45.5-46.3-77.7-39.6 -32.3 6.6-55.7 34.6-56.2 67.2 -0.6 32.6 21.9 60.9 53.9 68.1 32 7.2 65-8.8 79.1-38.4z" class="b"/>
    <path d="m-42.7 142.2l285.2 0 0 89.9 -285.2 0z" class="a"/>
    <path d="m15.1 197.3l-13 0 0-3 2.4 0 0-23 -2.4 0 0-3 13 0q3.8 0 6.8 1.3 3 1.3 5 3.3 3.9 4.3 3.9 9.7 0 7.3-3.9 10.9 -3.9 3.7-11.7 3.7zm-1.4-3q3.7 0 5.8-2.5 2-2.5 2-8.5 0-6-2.2-9 -2.2-3-5.5-3l0 23zm43.2 1.4q-1 1-2.5 1.4 -1.5 0.4-3.4 0.4 -4.6 0-5.3-1.6 -1.7 1.7-7 1.7 -3 0-5-1.5 -2-1.5-2-4.4 0-3.7 2.8-5.7 2.8-2 9.3-2.7l1-0.1 0-1.5q0-4-0.5-5 -0.5-1-1.8-1 -1.3 0-1.5 0.2 -0.2 0.2-0.1 0.5 0.1 0.3 0.4 1.5 0.4 1.1 0.4 1.9 0 1.9-1.3 3.2 -1.3 1.3-3.2 1.3 -1.9 0-3.2-1.3 -1.4-1.3-1.4-3.2 0-3 2.9-5 2.9-2 8.2-2 5.4 0 7.8 2.3 2.4 2.3 2.4 7.7l0 8.6q0 2.1 0.3 2.4 0.3 0.3 2.7-0.2l0 2.2zm-16.6-5q0.2 1.4 1 2.2 0.8 0.7 1.8 0.7 1 0 1.6-0.8l0-6.7 -0.6 0.1q-1.9 0.3-3 1.4 -1.1 1.1-0.9 3.1zm49.4-4.6l3 0 0 11.1 -24.6 0 0-3 2.4 0 0-23 -2.4 0 0-3 14.5 0 0 3 -2.9 0 0 23 3.8 0q1.5 0 2.5-0.2 0.9-0.2 2-0.9 1.8-1.2 1.8-7.1zm26.6 1.5l-14.4 0q0.4 6.4 5.5 6.4 1.5 0 3.3-0.7 1.9-0.7 3.2-2.7l2.3 1.6q-1.7 2.8-4.5 4.1 -2.8 1.3-5.5 1.3 -2.7 0-4.8-0.5 -2.1-0.5-4.3-1.9 -2.1-1.3-3.3-4 -1.2-2.6-1.2-6.3 0-6.2 3.5-9.3 3.5-3.1 8.5-3.1 5 0 8.3 3.4 3.3 3.4 3.3 11.6zm-15-2.5l6.3-0.5q0-3.3-0.8-6.1 -0.8-2.9-2.1-2.9 -1.3 0-2.1 2.8 -0.8 2.8-0.8 6.7l-0.5 0zm24.4 6.6q0 0.5 0.8 0.5l8.2 0q4.7 0 6.7 2.2 2 2.2 1.4 5.3 -0.6 3.1-3.6 5.6 -3.1 2.5-8.3 2.5 -9.4 0-12.3-3 -1.2-1.4-1.1-3.2 0.2-1.8 1.3-2.9 1.1-1.1 1.5-0.8 -1.2-0.5-1.2-2.9 0-2.3 1.3-4 1.3-1.7 1.6-1.7 -4.5-1.5-4.5-7.4 0-4.4 3.9-6.8 3.9-2.4 8.7-2.4 2.3 0 2.7 0.5 -0.5 0-0.5-2.5 0-2.4 1.7-4.1 1.7-1.7 4.3-1.7 2.5 0 3.9 1.4 1.4 1.4 1.4 3.2 0 1.8-1.1 3.1 -1.1 1.3-2.9 1.3 -1.8 0-2.9-1.2 -1.1-1.2-1.1-2.5 0-1.2 0.6-1.9 0.6-0.6 0.1-0.5 0.4 0 0.1 0.3 -0.2 0.3-0.7 1.1 -0.4 0.8-0.4 1.8 0 2.1 1.9 3.4 4.6 2.6 4.6 7.2 0 4.7-3.8 7 -3.8 2.3-8.7 2.3 -2.4 0-3.5-0.3 -0.1 0.2-0.1 1.1zm6.9-10q0-3.8-0.7-4.9 -0.7-1.1-2.1-1.1 -1.3 0-2 1.1 -0.6 1.1-0.6 4.9 0 3.8 0.7 5 0.7 1.3 2 1.3 1.3 0 2-1.2 0.8-1.2 0.8-5zm1.8 18.8l-8.1 0q-2.5 0-3.2-0.3 -0.3 1.5 1.7 3.1 2 1.6 5.9 1.6 3.9 0 6.4-1.9 1-0.7 1-1.1 0.1-0.4-0.8-0.9 -0.8-0.4-3.1-0.4zm37.2-6.3l2.4 0 0 3 -14 0 0-3 2.4 0 0-12.5q0-3.1-0.8-4.2 -0.8-1.1-2.3-1.1 -2.2 0-3.4 2.1l0 15.6 2.4 0 0 3 -14 0 0-3 2.4 0 0-18.2 -2.4 0 0-3 11.6 0 -0.5 2q-0.2-0.5 1.9-1.5 2.2-1 4.6-1 9.5 0 9.5 10.3l0 11.4zm29 1.4q-1 1-2.5 1.4 -1.5 0.4-3.4 0.4 -4.6 0-5.3-1.6 -1.7 1.7-7 1.7 -3 0-5-1.5 -2-1.5-2-4.4 0-3.7 2.8-5.7 2.8-2 9.3-2.7l1-0.1 0-1.5q0-4-0.5-5 -0.5-1-1.8-1 -1.3 0-1.5 0.2 -0.2 0.2-0.1 0.5 0.1 0.3 0.4 1.5 0.4 1.1 0.4 1.9 0 1.9-1.3 3.2 -1.3 1.3-3.2 1.3 -1.9 0-3.2-1.3 -1.4-1.3-1.4-3.2 0-3 2.9-5 2.9-2 8.2-2 5.4 0 7.8 2.3 2.4 2.3 2.4 7.7l0 8.6q0 2.1 0.3 2.4 0.3 0.3 2.7-0.2l0 2.2zm-16.6-5q0.2 1.4 1 2.2 0.8 0.7 1.8 0.7 1 0 1.6-0.8l0-6.7 -0.6 0.1q-1.9 0.3-3 1.4 -1.1 1.1-0.9 3.1z" class="b"/>
    <path d="m-20.7 205.3l241.1 0 0 54.2 -241.1 0z" class="a"/>
    <path d="m25.5 220.5l2.4 0 -5.7 16.8 -2.4 0 -4.3-13.9 -4.4 13.9 -2.4 0 -5.7-16.8 2.5 0 4.4 14.3 4.4-14.3 2.3 0 4.4 14.3 4.4-14.3zm10 4q1.9 0 3.4 0.8 1.5 0.8 2.3 2.3 0.8 1.5 0.8 3.3 0 1.9-0.8 3.3 -0.8 1.5-2.3 2.3 -1.5 0.8-3.4 0.8 -1.9 0-3.4-0.8 -1.5-0.8-2.3-2.3 -0.8-1.5-0.8-3.3 0-1.9 0.8-3.3 0.8-1.5 2.3-2.3 1.5-0.8 3.4-0.8zm0 1.9q-1.2 0-2.2 0.6 -1 0.6-1.5 1.6 -0.5 1-0.5 2.3 0 1.3 0.5 2.4 0.5 1 1.5 1.6 1 0.6 2.2 0.6 1.2 0 2.2-0.6 1-0.6 1.5-1.6 0.5-1 0.5-2.4 0-1.3-0.5-2.3 -0.5-1-1.5-1.6 -1-0.6-2.2-0.6zm14.9-1.9q1.9 0 3.4 0.8 1.5 0.8 2.3 2.3 0.8 1.5 0.8 3.3 0 1.9-0.8 3.3 -0.8 1.5-2.3 2.3 -1.5 0.8-3.4 0.8 -1.9 0-3.4-0.8 -1.5-0.8-2.3-2.3 -0.8-1.5-0.8-3.3 0-1.9 0.8-3.3 0.8-1.5 2.3-2.3 1.5-0.8 3.4-0.8zm0 1.9q-1.2 0-2.2 0.6 -1 0.6-1.5 1.6 -0.5 1-0.5 2.3 0 1.3 0.5 2.4 0.5 1 1.5 1.6 1 0.6 2.2 0.6 1.2 0 2.2-0.6 1-0.6 1.5-1.6 0.5-1 0.5-2.4 0-1.3-0.5-2.3 -0.5-1-1.5-1.6 -1-0.6-2.2-0.6zm21.5-7l0 17.8 -2.2 0 0-2.5q-0.7 1.3-1.9 2 -1.2 0.7-2.8 0.7 -1.8 0-3.2-0.8 -1.4-0.8-2.1-2.3 -0.8-1.5-0.8-3.4 0-1.9 0.8-3.3 0.8-1.5 2.1-2.3 1.4-0.8 3.2-0.8 1.6 0 2.8 0.7 1.2 0.7 1.9 2l0-7.6 2.2 0zm-6.5 16q1.3 0 2.2-0.6 1-0.6 1.5-1.6 0.5-1 0.5-2.3 0-1.3-0.5-2.3 -0.5-1-1.5-1.6 -1-0.6-2.2-0.6 -1.3 0-2.2 0.6 -1 0.6-1.5 1.6 -0.5 1-0.5 2.3 0 1.3 0.5 2.3 0.6 1 1.5 1.6 1 0.6 2.2 0.6zm15.7-14.2q-0.9 0-1.4 0.5 -0.6 0.5-0.6 1.5l0 1.7 3.5 0 0 1.7 -3.5 0 0 10.6 -2.2 0 0-10.6 -1.7 0 0-1.7 1.7 0 0-1.4q0-1.4 0.6-2.4 0.6-1 1.5-1.5 1-0.5 2.1-0.5 1.1 0 2.2 0.6l-0.5 1.8q-0.9-0.4-1.6-0.4zm3.5 3.3l2.2 0 0 12.7 -2.2 0 0-12.7zm1.1-5.1q0.6 0 1 0.4 0.4 0.4 0.4 1 0 0.6-0.4 1 -0.4 0.4-1 0.4 -0.6 0-1-0.4 -0.4-0.4-0.4-1 0-0.6 0.4-1 0.4-0.4 1-0.4zm7.7 7.8q0.6-1.4 1.8-2.1 1.2-0.7 2.7-0.7l0 2.2q-1.9-0.1-3.1 1 -1.2 1.1-1.4 2.9l0 6.7 -2.2 0 0-12.7 2.2 0 0 2.8zm12-2.8q3 0 4.5 1.8 1.5 1.7 1.5 4.8 0 0.5 0 0.7l-10 0q0.3 1.7 1.4 2.7 1.2 1 2.9 1 1.1 0 2.1-0.4 1-0.4 1.7-1.2l1.2 1.3q-0.9 1-2.3 1.6 -1.3 0.5-2.9 0.5 -1.9 0-3.3-0.8 -1.5-0.8-2.3-2.3 -0.8-1.5-0.8-3.3 0-1.9 0.8-3.3 0.8-1.5 2.3-2.3 1.4-0.8 3.3-0.8zm4 5.6q-0.1-1.7-1.2-2.7 -1-1-2.8-1 -1.7 0-2.8 1 -1.1 1-1.3 2.7l8.1 0zm16.9-10.6l0 17.8 -2.2 0 0-2.5q-0.7 1.3-1.9 2 -1.2 0.7-2.8 0.7 -1.8 0-3.2-0.8 -1.4-0.8-2.1-2.3 -0.8-1.5-0.8-3.4 0-1.9 0.8-3.3 0.8-1.5 2.1-2.3 1.4-0.8 3.2-0.8 1.6 0 2.8 0.7 1.2 0.7 1.9 2l0-7.6 2.2 0zm-6.5 16q1.3 0 2.2-0.6 1-0.6 1.5-1.6 0.5-1 0.5-2.3 0-1.3-0.5-2.3 -0.5-1-1.5-1.6 -1-0.6-2.2-0.6 -1.2 0-2.2 0.6 -1 0.6-1.5 1.6 -0.5 1-0.5 2.3 0 1.3 0.5 2.3 0.6 1 1.5 1.6 1 0.6 2.2 0.6zm24-15q3.2 0 4.9 1.5 1.7 1.5 1.7 4.2 0 2.8-1.7 4.4 -1.7 1.5-4.8 1.5l-4.2 0 0 5.2 -2.3 0 0-16.8 6.5 0zm-0.1 9.5q2.2 0 3.3-1 1.2-1 1.2-2.8 0-1.8-1.2-2.7 -1.2-0.9-3.3-0.9l-4.1 0 0 7.4 4.1 0zm9.5-5.4l2.2 0 0 12.7 -2.2 0 0-12.7zm1.1-5.1q0.6 0 1 0.4 0.4 0.4 0.4 1 0 0.6-0.4 1 -0.4 0.4-1 0.4 -0.6 0-1-0.4 -0.4-0.4-0.4-1 0-0.6 0.4-1 0.4-0.4 1-0.4zm4.7 5.1l10.2 0 0 1.6 -7.7 9.3 7.9 0 0 1.9 -10.6 0 0-1.6 7.7-9.2 -7.4 0 0-1.9zm12.7 0l10.2 0 0 1.6 -7.7 9.3 7.9 0 0 1.9 -10.6 0 0-1.6 7.7-9.2 -7.4 0 0-1.9zm21.3 12.7l0-1.8q-1.4 1.9-4.4 1.9 -1.3 0-2.3-0.5 -1-0.5-1.5-1.4 -0.5-0.9-0.5-2 0-1.7 1.3-2.7 1.3-1 3.5-1l4 0 0-0.6q0-1.3-0.8-2.1 -0.8-0.7-2.4-0.7 -1.9 0-3.9 1.4l-0.9-1.5q1.4-0.9 2.5-1.3 1.2-0.4 2.8-0.4 2.4 0 3.7 1.2 1.3 1.2 1.3 3.2l0 8.4 -2.2 0zm-4-1.7q1.6 0 2.7-0.7 1.1-0.8 1.3-2l0-1.3 -3.7 0q-1.5 0-2.2 0.5 -0.7 0.5-0.7 1.4 0 1 0.7 1.6 0.8 0.6 2 0.6z" class="b"/>
    <path d="m-9.9 127.9l57.6 0 0 31.4 -57.6 0z" class="a"/>
    <path d="m0.6 140.7l7.1 0 0 1.3 -5.7 0 0 3.2 5.1 0 0 1.3 -5.1 0 0 3.3 5.9 0 0 1.3 -7.3 0 0-10.3zm13.7 4.2q-0.5-0.3-1.1-0.5 -0.6-0.2-1.1-0.2 -0.6 0-1 0.2 -0.4 0.2-0.4 0.7 0 0.5 0.4 0.7 0.4 0.2 1.3 0.5 0.8 0.2 1.3 0.5 0.5 0.2 0.9 0.7 0.4 0.5 0.4 1.2 0 1.1-0.8 1.7 -0.8 0.6-2 0.6 -0.9 0-1.7-0.3 -0.8-0.3-1.4-0.8l0.5-1q0.5 0.4 1.2 0.7 0.7 0.3 1.4 0.3 0.7 0 1.1-0.2 0.4-0.2 0.4-0.8 0-0.5-0.4-0.8 -0.4-0.3-1.3-0.5 -0.8-0.2-1.3-0.4 -0.5-0.2-0.8-0.7 -0.3-0.4-0.3-1.1 0-1.1 0.8-1.6 0.8-0.5 2-0.5 0.7 0 1.4 0.2 0.7 0.2 1.2 0.5l-0.5 1zm6.7 5.5q-0.9 0.6-1.8 0.6 -0.9 0-1.5-0.5 -0.6-0.6-0.6-1.7l0-4.3 -1.1 0 0-1 1.1 0 0-2.1 1.4 0 0 2.1 2.4 0 0 1 -2.4 0 0 4q0 0.6 0.2 0.9 0.2 0.3 0.7 0.3 0.6 0 1.2-0.4l0.4 1zm8.9-10.4l0 10.9 -1.4 0 0-1.5q-0.5 0.8-1.2 1.2 -0.7 0.4-1.7 0.4 -1.1 0-2-0.5 -0.8-0.5-1.3-1.4 -0.5-0.9-0.5-2.1 0-1.1 0.5-2 0.5-0.9 1.3-1.4 0.8-0.5 1.9-0.5 1 0 1.7 0.4 0.8 0.4 1.2 1.2l0-4.7 1.4 0zm-4 9.8q0.8 0 1.3-0.3 0.6-0.4 0.9-1 0.3-0.6 0.3-1.4 0-0.8-0.3-1.4 -0.3-0.6-0.9-1 -0.6-0.4-1.3-0.4 -0.8 0-1.4 0.4 -0.6 0.4-0.9 1 -0.3 0.6-0.3 1.4 0 0.8 0.3 1.4 0.3 0.6 0.9 1 0.6 0.3 1.4 0.3zm6.9-0.5q0.3 0 0.5 0.2 0.2 0.2 0.2 0.6 0 0.4-0.2 0.6 -0.2 0.2-0.5 0.2 -0.3 0-0.6-0.2 -0.2-0.2-0.2-0.6 0-0.4 0.2-0.6 0.2-0.2 0.6-0.2z" class="b"/>
    <path d="m157.9 127.9l57.6 0 0 54.2 -57.6 0z" class="a"/>
    <path d="m174.9 149.7l0 1.3 -7.4 0 0-1.1 4-4.1q0.6-0.6 1-1.3 0.4-0.6 0.4-1.1 0-0.7-0.5-1.1 -0.5-0.4-1.5-0.4 -0.7 0-1.5 0.3 -0.8 0.3-1.4 0.9l-0.6-1.1q0.8-0.7 1.8-1 1-0.4 1.9-0.4 1.5 0 2.4 0.7 0.9 0.7 0.9 1.8 0 1.4-1.9 3.3l-3.1 3.2 5.6 0zm5.8-9q2.1 0 3.2 1.3 1.1 1.3 1.1 3.8 0 2.5-1.1 3.9 -1.1 1.3-3.2 1.3 -2.1 0-3.2-1.3 -1.1-1.4-1.1-3.9 0-2.5 1.1-3.8 1.1-1.3 3.2-1.3zm0 1.1q-2.8 0-2.8 4.1 0 2 0.7 3 0.7 1 2.1 1 1.4 0 2.1-1 0.7-1 0.7-3 0-4.1-2.8-4.1zm5.2-1.1l3.7 0 0 10.3 -1.4 0 0-9 -2.3 0 0-1.3zm9.8 4.4q1.5 0.1 2.5 0.8 0.9 0.7 0.9 1.9 0 1-0.5 1.7 -0.5 0.7-1.4 1.2 -0.9 0.4-2.1 0.4 -1 0-2-0.3 -1-0.3-1.7-0.8l0.6-1.1q0.6 0.5 1.4 0.8 0.8 0.3 1.6 0.3 1.3 0 2-0.5 0.7-0.5 0.7-1.5 0-0.9-0.7-1.4 -0.7-0.5-2-0.5l-1.4 0 0-0.9 3.2-3.1 -4.7 0 0-1.3 6.6 0 0 0.9 -3.4 3.4 0.6 0z" class="b"/>
  </g>
</svg>